<?xml version="1.0" encoding="utf-8"?>
<svg version="1.1" xmlns:xlink="http://www.w3.org/1999/xlink" width="55px" height="55px" xmlns="http://www.w3.org/2000/svg">
  <g transform="matrix(1 0 0 1 -93 -275 )">
    <path d="M 120.5 276  C 135.34 276  147 287.66  147 302.5  C 147 317.34  135.34 329  120.5 329  C 105.66 329  94 317.34  94 302.5  C 94 287.66  105.66 276  120.5 276  Z " fill-rule="nonzero" fill="#ffffff" stroke="none" />
    <path d="M 120.5 276  C 135.34 276  147 287.66  147 302.5  C 147 317.34  135.34 329  120.5 329  C 105.66 329  94 317.34  94 302.5  C 94 287.66  105.66 276  120.5 276  Z " stroke-width="2" stroke="#797979" fill="none" />
  </g>
</svg>