<?xml version="1.0" encoding="utf-8"?>
<svg version="1.1" xmlns:xlink="http://www.w3.org/1999/xlink" width="55px" height="55px" xmlns="http://www.w3.org/2000/svg">
  <g transform="matrix(1 0 0 1 -401 -201 )">
    <path d="M 428.5 202  C 443.34 202  455 213.66  455 228.5  C 455 243.34  443.34 255  428.5 255  C 413.66 255  402 243.34  402 228.5  C 402 213.66  413.66 202  428.5 202  Z " fill-rule="nonzero" fill="#ffffff" stroke="none" />
    <path d="M 428.5 202  C 443.34 202  455 213.66  455 228.5  C 455 243.34  443.34 255  428.5 255  C 413.66 255  402 243.34  402 228.5  C 402 213.66  413.66 202  428.5 202  Z " stroke-width="2" stroke="#000000" fill="none" />
  </g>
</svg>