<?xml version="1.0" encoding="utf-8"?>
<svg version="1.1" xmlns:xlink="http://www.w3.org/1999/xlink" width="142px" height="58px" xmlns="http://www.w3.org/2000/svg">
  <defs>
    <mask fill="white" id="clip9">
      <path d="M 0 54.8  L 0 3.2  C 0 1.40799999999999  3.51999999999998 0  8 0  L 69.8688524590164 0  L 134 0  C 138.48 0  142 1.40799999999999  142 3.2  L 142 54.8  C 142 56.592  138.48 58  134 58  L 8 58  C 3.51999999999998 58  0 56.592  0 54.8  Z " fill-rule="evenodd" />
    </mask>
  </defs>
  <g transform="matrix(1 0 0 1 -358 -338 )">
    <path d="M 0 54.8  L 0 3.2  C 0 1.40799999999999  3.51999999999998 0  8 0  L 69.8688524590164 0  L 134 0  C 138.48 0  142 1.40799999999999  142 3.2  L 142 54.8  C 142 56.592  138.48 58  134 58  L 8 58  C 3.51999999999998 58  0 56.592  0 54.8  Z " fill-rule="nonzero" fill="#ffffff" stroke="none" transform="matrix(1 0 0 1 358 338 )" />
    <path d="M 0 54.8  L 0 3.2  C 0 1.40799999999999  3.51999999999998 0  8 0  L 69.8688524590164 0  L 134 0  C 138.48 0  142 1.40799999999999  142 3.2  L 142 54.8  C 142 56.592  138.48 58  134 58  L 8 58  C 3.51999999999998 58  0 56.592  0 54.8  Z " stroke-width="4" stroke="#333333" fill="none" transform="matrix(1 0 0 1 358 338 )" mask="url(#clip9)" />
  </g>
</svg>