<?xml version="1.0" encoding="utf-8"?>
<svg version="1.1" xmlns:xlink="http://www.w3.org/1999/xlink" width="42px" height="42px" xmlns="http://www.w3.org/2000/svg">
  <g transform="matrix(1 0 0 1 -84 -566 )">
    <path d="M 105 567  C 116.2 567  125 575.8  125 587  C 125 598.2  116.2 607  105 607  C 93.8 607  85 598.2  85 587  C 85 575.8  93.8 567  105 567  Z " fill-rule="nonzero" fill="#ffffff" stroke="none" />
    <path d="M 105 567  C 116.2 567  125 575.8  125 587  C 125 598.2  116.2 607  105 607  C 93.8 607  85 598.2  85 587  C 85 575.8  93.8 567  105 567  Z " stroke-width="2" stroke="#797979" fill="none" />
  </g>
</svg>